
<svg xmlns="http://www.w3.org/2000/svg" viewBox="0 0 512 512">
  <defs>
    <linearGradient id="grad" x1="0%" y1="0%" x2="100%" y2="100%">
      <stop offset="0%" style="stop-color:#3b82f6;stop-opacity:1" />
      <stop offset="100%" style="stop-color:#1d4ed8;stop-opacity:1" />
    </linearGradient>
  </defs>
  <circle cx="256" cy="256" r="240" fill="url(#grad)" />
  <path d="M368 320c0-61.9-50.1-112-112-112-6.5 0-12.9.6-19 1.7C230.6 172.8 196.3 152 156 152c-64.1 0-116 51.9-116 116 0 5.4.4 10.7 1.2 15.8C17.3 296.2 0 316.5 0 340c0 37.6 30.4 68 68 68h300c37.6 0 68-30.4 68-68 0-11.2-2.7-21.7-7.5-30.9 23.3-13 39.5-38.1 39.5-66.9 0-33.1-26.9-60-60-60z" fill="#fbbf24" transform="translate(40, -40)" />
  <path d="M400 320c0-66.3-53.7-120-120-120-8.8 0-17.3 1.1-25.5 3.2-11.3-43-50.5-75.2-96.5-75.2-55.2 0-100 44.8-100 100 0 4.3.3 8.6 1 12.8C23.9 255.6 0 286.7 0 324c0 46.4 37.6 84 84 84h316c46.4 0 84-37.6 84-84 0-14.8-3.9-28.7-10.8-40.8 30.2-16.1 50.8-47.8 50.8-83.2 0-53-43-96-96-96z" fill="#ffffff" opacity="0.9" transform="translate(0, 40)" />
</svg>
